<svg xmlns="http://www.w3.org/2000/svg" viewBox="0 0 938.03 701.7"><defs><style>.cls-1{fill:#fff;stroke:#fff;stroke-miterlimit:10;}</style></defs><g id="Livello_2" data-name="Livello 2"><g id="Livello_1-2" data-name="Livello 1"><path class="cls-1" d="M924.49,561.32l-1-1.08a49.27,49.27,0,0,0-69.62-2.84l-31.36,28.89a3.29,3.29,0,0,1-5.51-2.12L802.25,420.56c-5.25-58.27-82.49-75-111.36-24.1L643,480.92a4.82,4.82,0,0,1-9-2.5l4.42-168.7C640,247.85,558,224.71,527,278.3L405.64,488.48a11.69,11.69,0,0,1-9.26,5.81l-60.91,4.5a3.29,3.29,0,0,1-2.39-5.78c42-36.35,82.26-72.63,99.39-92.15C450.29,380.55,482,338.89,494,288c13.65-57.6-2-111.27-44.22-151.13-33.48-31.66-78-51.31-128.71-56.82-28.78-3.13-59.26-1.88-91.09,3.7a3.33,3.33,0,0,1-3.83-2.63c-3.14-16-6.31-30.22-9.27-42.46A50,50,0,0,0,151.83,3.32h0a50,50,0,0,0-32.12,58.92c3.27,13.55,6.89,30.05,10.42,49.2a3.35,3.35,0,0,1-1.94,3.66C86.32,133.75,48.77,157.42,21.7,176.44a50,50,0,0,0-9.15,73.41h0a50.88,50.88,0,0,0,67.36,7.93,599.19,599.19,0,0,1,59.94-37.11,3.29,3.29,0,0,1,4.83,2.62c2.63,33.33,4.06,70,3.46,109.39-1.5,98.15-24.29,184.91-43.15,240.4-7.8,22.93-15.59,42.58-22.28,58.2a50,50,0,0,0,21.73,63.52l2.74,1.51-2.76-1.53a50,50,0,0,0,70.25-24c6.84-16,14.59-35.37,22.41-57.75a6.14,6.14,0,0,1,5.34-4.1L335.85,599a3.29,3.29,0,0,1,3.09,4.93l-12.81,22.17A50,50,0,0,0,412.8,676l115-197.92a3.29,3.29,0,0,1,6.14,1.74l-4,154.25c-1.78,67.89,88.43,93,121.95,33.9L709,567.11a3.29,3.29,0,0,1,6.14,1.33l4.51,50c6.76,75,96.56,109.6,151.9,58.59l50.06-46.13A49.26,49.26,0,0,0,924.49,561.32ZM242,188.73a5.82,5.82,0,0,1,4.78-6.33c57.18-10.05,104.81-.77,134.35,27.15,16.46,15.56,20.57,35,15.61,55.41-5.29,21.74-19.53,47.27-39.43,70-15.19,17.31-60.37,57.49-109.64,99.68a4.14,4.14,0,0,1-6.79-3.69,828.73,828.73,0,0,0,7.26-96.7A1264.07,1264.07,0,0,0,242,188.73Z"/></g></g></svg>